<?xml version="1.0" encoding="UTF-8"?>
<svg xmlns="http://www.w3.org/2000/svg" id="arrow-circle-down" viewBox="0 0 24 24" width="512" height="512"><path d="M12,0C5.383,0,0,5.383,0,12s5.383,12,12,12,12-5.383,12-12S18.617,0,12,0Zm0,23c-6.065,0-11-4.935-11-11S5.935,1,12,1s11,4.935,11,11-4.935,11-11,11Z"/><path d="M11.426,5.913c-.411-.406-1.022-.523-1.556-.3-.537,.224-.87,.722-.87,1.3v10.175c0,.578,.333,1.076,.87,1.3,.18,.075,.368,.112,.555,.112,.368,0,.729-.143,1.001-.412l5.155-5.087c.27-.267,.419-.622,.419-1s-.149-.733-.419-1l-5.155-5.087Zm4.452,6.375l-5.154,5.087c-.189,.187-.406,.115-.469,.089-.077-.032-.255-.133-.255-.377V6.913c0-.244,.179-.345,.255-.377,.03-.012,.095-.035,.176-.035,.088,0,.194,.027,.293,.124l5.154,5.087c.079,.077,.122,.18,.122,.288s-.043,.211-.122,.288Z"/></svg>
