<?xml version="1.0" encoding="UTF-8"?>
<svg xmlns="http://www.w3.org/2000/svg" id="arrow-circle-down" viewBox="0 0 24 24" width="512" height="512"><path d="M12,0C5.383,0,0,5.383,0,12s5.383,12,12,12,12-5.383,12-12S18.617,0,12,0Zm0,23c-6.065,0-11-4.935-11-11S5.935,1,12,1s11,4.935,11,11-4.935,11-11,11Z"/><path d="M14.13,5.613c-.534-.223-1.146-.105-1.556,.3l-5.154,5.087c-.271,.267-.419,.622-.419,1s.149,.733,.419,1l5.154,5.087c.272,.269,.633,.412,1.001,.412,.187,0,.375-.037,.555-.112,.537-.224,.87-.722,.87-1.3V6.913c0-.578-.333-1.076-.87-1.3Zm-.13,11.475c0,.244-.179,.345-.256,.377-.062,.025-.283,.095-.468-.089l-5.155-5.087c-.079-.078-.122-.18-.122-.288s.043-.21,.122-.288l5.155-5.087c.098-.097,.204-.124,.293-.124,.08,0,.146,.022,.175,.035,.077,.032,.256,.133,.256,.377v10.175Z"/></svg>
