<?xml version="1.0" encoding="UTF-8"?>
<svg xmlns="http://www.w3.org/2000/svg" id="Layer_1" data-name="Layer 1" viewBox="0 0 24 24" width="512" height="512"><path d="m11.02,23H2.5c-.827,0-1.5-.673-1.5-1.5s.673-1.5,1.5-1.5h6.874c-.1-.326-.181-.659-.242-1h-4.132V1h13.5c.276,0,.5.224.5.5v7.632c.341.061.674.142,1,.242V1.5c0-.827-.673-1.5-1.5-1.5H2.5C1.122,0,0,1.122,0,2.5v19c0,1.379,1.122,2.5,2.5,2.5h9.523c-.362-.305-.697-.64-1.004-1ZM2.5,1h1.5v18h-1.5c-.562,0-1.082.187-1.5.501V2.5c0-.827.673-1.5,1.5-1.5Zm15,10c-3.584,0-6.5,2.916-6.5,6.5s2.916,6.5,6.5,6.5,6.5-2.916,6.5-6.5-2.916-6.5-6.5-6.5Zm0,12c-3.033,0-5.5-2.468-5.5-5.5s2.467-5.5,5.5-5.5,5.5,2.468,5.5,5.5-2.467,5.5-5.5,5.5Zm-.5-9.587v3.587h-3v1h3v3.593l3.588-3.102c.551-.554.55-1.452-.003-2.004l-3.585-3.074Zm2.907,4.347l-1.907,1.647v-3.82l1.89,1.62c.152.163.149.418.017.553Z"/></svg>
